<?xml version="1.0" encoding="utf-8"?>
<!-- Generator: Adobe Illustrator 26.3.1, SVG Export Plug-In . SVG Version: 6.00 Build 0)  -->
<svg version="1.1" id="Layer_1" xmlns="http://www.w3.org/2000/svg" xmlns:xlink="http://www.w3.org/1999/xlink" x="0px" y="0px"
	 viewBox="0 0 128 128" style="enable-background:new 0 0 128 128;" xml:space="preserve">
<style type="text/css">
	.st0{fill:#488CCA;}
</style>
<g>
	<path class="st0" d="M63.9,15.3c-21.1,0-38.3,17.2-38.3,38.3c0,21.1,17.2,38.3,38.3,38.3c21.1,0,38.3-17.2,38.3-38.3
		C102.3,32.5,85.1,15.3,63.9,15.3 M93.8,32.2c-2,1.3-4,2.5-6.2,3.6c-1.3-2.5-2.8-4.9-4.6-7.2c1.6-0.9,3.1-2,4.5-3.2
		C89.9,27.4,92,29.7,93.8,32.2 M77.7,19.5c3.1,1.2,6,2.9,8.6,4.9c-1.3,1.1-2.7,2.1-4.2,3c-1.9-2.2-4-4.1-6.3-5.8
		C76.5,20.9,77.1,20.2,77.7,19.5 M80.7,28.2c-2.1,1.1-4.2,2-6.5,2.7c-0.9-2.1-2-4.2-3.2-6.3c1.2-0.5,2.4-1.2,3.5-2
		C76.8,24.2,78.8,26.1,80.7,28.2 M76.1,18.9c-0.5,0.6-1.1,1.2-1.7,1.7c-2-1.4-4.2-2.6-6.4-3.6C70.8,17.4,73.5,18,76.1,18.9
		 M73.1,21.6c-0.9,0.7-1.9,1.2-2.9,1.6c-1.1-1.8-2.4-3.5-3.7-5.1C68.8,19.1,71,20.3,73.1,21.6 M64.7,18.4c1.4,1.7,2.7,3.5,4,5.4
		c-1.3,0.4-2.6,0.6-4,0.7V18.4L64.7,18.4z M64.7,26.1c1.6-0.1,3.3-0.4,4.8-0.9c1.2,2,2.2,4,3.1,6.1c-2.6,0.7-5.3,1-8,1.1L64.7,26.1
		L64.7,26.1z M63.1,18.5v6c-1.3-0.1-2.6-0.3-3.9-0.7C60.4,22,61.7,20.2,63.1,18.5 M57.7,23.3c-1-0.4-2-1-2.9-1.6
		c2.1-1.4,4.3-2.6,6.6-3.5C60.1,19.8,58.8,21.5,57.7,23.3 M59.9,17.1c-2.3,1-4.4,2.2-6.5,3.6c-0.6-0.5-1.2-1.1-1.7-1.7
		C54.4,18,57.1,17.3,59.9,17.1 M86.2,82.9c-5.1-2.8-5.2-6.7-4.9-8.1c0.3-1.5,1.3-0.8,1.9-0.8c3.4,0,6.9-1,11.2-5.4
		c4.9-5,6.4-16.1-1.1-23.4c-8.1-7.8-16.7-6.4-22.3,0.6c-1.1,1.4-3.9,2.5-6.3,2.4c-3.6-0.1-1.3,2.7-1.3,3.3c0,0.6-0.5,1-0.9,0.9
		c-1.2-0.3-0.7,1.4-0.7,2c0,0.5-0.5,0.8-0.8,0.8c-1.5,0-1.1,1.4-1,1.7c0,0.4-0.1,1-0.6,1.3c-0.5,0.3-1,1.5-1,2.4
		c0,1.6,1.5,2.8,4,4.6c2.5,1.9,2.8,3.6,2.8,4.9c0,1.3,0.2,3.3,0.7,4.7c0.7,1.6,0.6,4.6-2.9,4.7c-4.2,0.2-11.7,3.5-12.3,3.8
		c-2.4,0.8-5.5,1.1-8,0.5c-1.3-0.9-2.6-1.9-3.8-3c-0.5-1.7,0.4-3.5,1.2-4.7c1.4,1.4,3.5,1.3,4.7,1.4c1.2,0,6.9-0.9,7.7-1.1
		c0.8-0.3,1.2-0.2,1.7,0c2.2,0.8,5.2,1,6.4-3.2c1.2-4.2-1.7-3-2-2.9c-0.4,0.2-0.9,0.1-0.7-0.2c0.5-1.1-0.3-1-0.7-1
		c-1.2-0.1-2.7,1.1-3.2,1.6c-0.5,0.5-1,0.4-1.2,0.3c-1.6-0.8-6.2,0.3-7.6-2.2c0.1-0.7-1.2-10.9-1.9-12.7c-0.2-0.6-0.2-1.2,0.2-1.7
		c1.2-1.8,4.4,0.1,6.2,0.1c2.1-0.1,2.5-0.9,3-1.7c0.6-0.7,1-0.3,1.3-0.5c0.4-0.2,0-0.7,0.2-1c0.1-0.3,0.3-0.1,0.7-0.5
		c0.4-0.3,0-1,0.1-1.3c0.5-0.8,1.9-0.2,1.1-2.2c-0.5-1.1,0.2-2.4,0.8-3.2c1-1.3,5-6.9-2-12.7c-6.7-5.5-13.4-5.1-17.7-0.4
		c-4.3,4.7-2.2,11.6-1.7,13.4c0.5,1.8-0.8,3.5-2.3,4.2c-1.2,0.6-3.9,2.4-6,4.2c0.3-14.8,9.3-27.8,23-33.3c0.6,0.7,1.2,1.4,1.9,2.1
		c-1.5,1.1-4.9,4.1-4.9,4.1s0.5,0.1,0.9,0.2c0.3,0.1,0.9,0.3,0.9,0.3s2.9-2.5,4.3-3.5c1.1,0.8,2.3,1.5,3.5,2
		c-0.7,1.1-2.3,4.3-2.3,4.3s0.4,0.2,0.7,0.5c0.3,0.2,0.6,0.4,0.6,0.4s1.8-3.4,2.5-4.6c1.5,0.5,3.1,0.8,4.8,0.9v6.3
		c-0.9,0-3.2-0.1-4.2-0.2l-0.6-0.1l0.3,0.5c0.3,0.4,0.4,0.7,0.6,1.1l0.1,0.1l0.2,0c0.7,0.1,2.8,0.1,3.6,0.1v11.5h1.6v-2.6
		c2.3-0.1,4.3-0.3,6.6-0.5l0.1,0l2.1-1.8l-1.1,0.1c-2.2,0.3-4.4,0.5-6.6,0.6l-1,0.1V34c2.9-0.1,5.8-0.5,8.6-1.2
		c0.8,1.9,2.2,6.5,2.2,6.5l1.5-0.5c0,0-1.5-4.6-2.2-6.5c2.4-0.7,4.7-1.7,6.9-2.9c1.8,2.2,3.3,4.5,4.5,7C85.1,37,83,37.7,83,37.7
		c1.7,0.2,2.9,0.6,2.9,0.6s0.6-0.3,1-0.4c0.1,0.3,0.4,1,0.4,1l2.1,0.9l-0.2-0.6c0,0-0.7-1.6-0.8-2c2.2-1.1,4.3-2.3,6.4-3.7
		c3.9,6,6,13,6,20.1C100.7,65.5,95,76.1,86.2,82.9 M22.1,25.4L21.5,26c-2.3,2-7.4,7.2-6.6,13c0,0,0.1,0.4,0.1,0.4l0.3,1.1l0.7-0.7
		c3.1-2.9,5.5-7.8,6.5-13.4l0.3-1.6L22.1,25.4L22.1,25.4z M11.7,35.4l-0.3,0.7c-0.4,1-1,3-1.4,5.7C9.6,45.6,9.7,51,13,55
		c0,0,0.4,0.5,0.4,0.5l0.4,0.5l0.5-2.4c0.5-4.3-0.2-13.4-1.8-17.4l-0.5-1.4L11.7,35.4L11.7,35.4z M7.9,51l0,0.7
		c-0.3,3.9-0.1,13.4,7.7,18.5l0.9,0.6l0-1.1c-0.1-3.6-4.4-14.5-7.5-18.3l-0.9-1.1L7.9,51L7.9,51z M9.2,68.1l0.1,0.7
		c1.1,5.5,6.3,14.4,14.4,17l1.1,0.4L24.4,85c-1.5-4.1-9.3-13.7-14.2-16.8l-1.1-0.7L9.2,68.1L9.2,68.1z M25.4,33.7l-0.6,0.4
		c-6,3.7-8.8,8.1-8.6,13.6l0.1,1.3l0.9-0.7c3.2-2.7,7.3-9.5,8.5-13.4l0.4-1.4L25.4,33.7L25.4,33.7z M21.8,45.7l-0.4,0.4
		c-1.5,1.5-6.5,6.7-6.1,13.3c0.1,1,0.3,2.1,0.7,3.2l0.3,1l0.6-0.9c2.4-3.3,5.5-12.1,5.3-16.2l0-1.2L21.8,45.7z M22.1,57l-0.3,0.5
		c-2.5,3.7-3.8,7.5-3.7,11c0.1,2.6,0.9,5.1,2.5,7.4l0.5,0.8l0.4-0.8c1.1-2,1.9-8.6,1.8-13.8c0-1.8-0.2-3.4-0.5-4.4l-0.3-1.1L22.1,57
		L22.1,57z M25,69.1l-0.2,0.5c-0.8,2.4-1.1,4.8-1,7c0.1,5.1,2.4,9,6.7,11.8l0.7,0.5l0.2-1c0,0,0.1-0.8,0.1-0.8
		c-0.1-4.1-3.2-14.5-5.6-17.7l-0.7-0.9L25,69.1L25,69.1z M16.6,85.2l0.3,0.5c3.2,5.4,8.7,12.4,18.9,10.6l0.9-0.1l-0.5-0.7
		c-1.9-2.8-14.3-9.9-18.7-10.6l-1.2-0.2L16.6,85.2z M31.7,99l-1.6,0.4l1.5,0.6c6.5,2.7,14.7,3.5,19.4,1.9c1.8-0.6,2.9-1.6,4.2-2.9
		c8.3,0.9,16.1,7.8,20.7,13.4l0.2,0.3l0.4-0.1c0.5-0.2,1.3-0.8,1.6-1.1l0.3-0.3l-0.3-0.4c-4.7-6.2-12.2-10.1-12.5-10.2
		C59,97.3,47.2,94.8,31.7,99"/>
	<path class="st0" d="M32.1,81.6l0.1,0.5c1,6.1,3.5,14.2,13.8,13.3l0.7-0.1l-0.2-0.6C45.8,92,36.3,83.9,33,81.6l-1-0.5L32.1,81.6z"
		/>
	<path class="st0" d="M105.3,24.9l0.3,1.6c1,5.6,3.3,10.5,6.5,13.4l0.7,0.7l0.2-1.1c0,0,0.1-0.4,0.1-0.4c0.8-5.8-4.3-11-6.6-13
		l-0.6-0.5L105.3,24.9z"/>
	<path class="st0" d="M116.1,34.7l-0.5,1.4c-1.6,4-2.3,13.1-1.8,17.4l0.5,2.4l0.4-0.5L115,55c3.3-4,3.4-9.4,2.9-13.2
		c-0.3-2.7-1-4.7-1.3-5.7l-0.3-0.7L116.1,34.7L116.1,34.7z"/>
	<path class="st0" d="M120.1,50.3l-0.9,1.1c-3.2,3.9-7.4,14.7-7.5,18.3l0,1.1l0.9-0.6c7.7-5.1,7.9-14.6,7.7-18.5l-0.1-0.7
		L120.1,50.3L120.1,50.3z"/>
	<path class="st0" d="M118.9,67.4l-1.1,0.7c-5,3.2-12.7,12.7-14.2,16.8l-0.4,1.1l1.1-0.4c8-2.6,13.3-11.5,14.4-17l0.1-0.7
		L118.9,67.4L118.9,67.4z"/>
	<path class="st0" d="M102.3,33.2l0.4,1.4c1.1,3.9,5,10.8,8.2,13.6l0.9,0.7l0.1-1.2c0.3-5.5-2.4-9.9-8.3-13.7l-0.6-0.4L102.3,33.2z"
		/>
	<path class="st0" d="M105.7,45.3l0,1.2c-0.2,4.1,3,12.9,5.3,16.2l0.6,0.9l0.4-1c0.4-1.1,0.6-2.2,0.7-3.2c0.4-6.5-4.5-11.8-6.1-13.3
		l-0.5-0.4L105.7,45.3L105.7,45.3z"/>
	<path class="st0" d="M105.6,56.5l-0.3,1.1c-0.3,1-0.5,2.6-0.5,4.4c-0.1,5.2,0.7,11.8,1.8,13.8l0.4,0.8l0.5-0.8
		c1.6-2.3,2.4-4.8,2.5-7.4c0.1-3.5-1.2-7.3-3.7-11l-0.3-0.5L105.6,56.5z"/>
	<path class="st0" d="M102.8,68.6l-0.7,0.9c-2.4,3.2-5.5,13.5-5.6,17.7c0,0,0.1,0.8,0.1,0.8l0.2,1c0,0,0.7-0.5,0.7-0.5
		c4.3-2.8,6.5-6.7,6.7-11.8c0.1-2.2-0.3-4.6-1-7l-0.2-0.5L102.8,68.6L102.8,68.6z"/>
	<path class="st0" d="M111.7,84.7l-1.2,0.2c-4.4,0.7-16.8,7.7-18.7,10.6l-0.5,0.7l0.9,0.1c10.2,1.8,15.7-5.2,18.9-10.6l0.3-0.5
		L111.7,84.7L111.7,84.7z"/>
	<path class="st0" d="M62.3,100.6c-0.3,0.1-7.8,4-12.5,10.2l-0.3,0.4l0.3,0.3c0.3,0.4,1.1,1,1.6,1.1l0.3,0.1l0.2-0.3
		c4.5-5.7,12.3-12.6,20.7-13.4c1.3,1.3,2.4,2.3,4.2,2.9c4.7,1.6,12.9,0.8,19.4-1.9l1.5-0.6L96.3,99C80.8,94.8,69,97.3,62.3,100.6"/>
	<path class="st0" d="M96,81.1l-1,0.5C91.7,83.9,82.2,92,81.5,94.8l-0.2,0.6l0.7,0.1c10.4,0.9,12.9-7.2,13.8-13.3l0.1-0.5L96,81.1z"
		/>
</g>
</svg>
