<?xml version="1.0" encoding="utf-8"?>
<!-- Generator: Adobe Illustrator 26.3.1, SVG Export Plug-In . SVG Version: 6.00 Build 0)  -->
<svg version="1.1" id="Layer_1" xmlns="http://www.w3.org/2000/svg" xmlns:xlink="http://www.w3.org/1999/xlink" x="0px" y="0px"
	 viewBox="0 0 628 400" style="enable-background:new 0 0 628 400;" xml:space="preserve">
<style type="text/css">
	.st0{fill:#FFFFFF;}
</style>
<g>
	<path class="st0" d="M531.8,124.7c-31.7,0-57.4,25.8-57.4,57.4c0,31.7,25.8,57.4,57.4,57.4c31.7,0,57.4-25.8,57.4-57.4
		C589.2,150.5,563.4,124.7,531.8,124.7 M576.6,150.1c-3,2-6,3.8-9.2,5.4c-1.9-3.8-4.2-7.4-6.9-10.7c2.4-1.4,4.6-3,6.7-4.8
		C570.7,142.9,573.9,146.3,576.6,150.1 M552.4,131c4.6,1.9,8.9,4.4,12.9,7.4c-2,1.6-4.1,3.1-6.3,4.5c-2.8-3.2-6-6.2-9.5-8.7
		C550.5,133.2,551.5,132.1,552.4,131 M556.9,144.1c-3.1,1.7-6.3,3-9.7,4c-1.4-3.2-3-6.3-4.8-9.4c1.9-0.8,3.6-1.8,5.2-3.1
		C551,138.1,554.1,141,556.9,144.1 M550.1,130.2c-0.8,0.9-1.6,1.8-2.5,2.6c-3-2.1-6.3-3.8-9.6-5.3
		C542.1,127.9,546.2,128.8,550.1,130.2 M545.6,134.3c-1.4,1-2.9,1.8-4.4,2.5c-1.7-2.7-3.6-5.2-5.5-7.7
		C539.1,130.4,542.4,132.2,545.6,134.3 M533,129.4c2.1,2.6,4.1,5.3,5.9,8.1c-1.9,0.6-3.9,0.9-5.9,1V129.4L533,129.4z M533,141
		c2.5-0.1,4.9-0.6,7.2-1.3c1.8,2.9,3.3,6,4.7,9.1c-3.9,1-7.9,1.6-11.9,1.6L533,141L533,141z M530.6,129.5v9.1c-2-0.1-4-0.4-5.8-1
		C526.5,134.8,528.5,132.1,530.6,129.5 M522.5,136.7c-1.6-0.7-3-1.5-4.4-2.5c3.1-2.1,6.4-3.8,9.9-5.2
		C526,131.5,524.1,134.1,522.5,136.7 M525.8,127.4c-3.4,1.5-6.6,3.3-9.7,5.3c-0.9-0.8-1.8-1.7-2.5-2.6
		C517.5,128.8,521.6,127.8,525.8,127.4 M565.1,226c-7.6-4.2-7.8-10-7.4-12.1c0.4-2.2,1.9-1.2,2.9-1.2c5,0,10.3-1.5,16.8-8.1
		c7.3-7.5,9.6-24.1-1.6-35c-12.2-11.7-25.1-9.7-33.4,0.9c-1.7,2.2-5.9,3.7-9.5,3.6c-5.3-0.2-2,4-2,4.9c0,0.9-0.8,1.5-1.3,1.4
		c-1.8-0.5-1.1,2.2-1.1,3c0,0.8-0.7,1.2-1.1,1.2c-2.2,0-1.6,2-1.6,2.6c0.1,0.5-0.1,1.5-0.9,1.9c-0.7,0.4-1.6,2.2-1.6,3.5
		c0,2.4,2.2,4.1,6,6.9c3.7,2.8,4.2,5.4,4.3,7.3c0.1,1.9,0.2,5,1.1,7c1,2.4,0.9,6.9-4.3,7.1c-6.3,0.3-17.5,5.3-18.4,5.6
		c-3.5,1.3-8.2,1.7-11.9,0.8c-2-1.4-3.9-2.9-5.6-4.6c-0.7-2.5,0.5-5.3,1.8-7.1c2.1,2.1,5.2,2,7,2c1.8,0.1,10.4-1.3,11.6-1.7
		c1.2-0.4,1.8-0.3,2.5,0c3.3,1.2,7.8,1.6,9.6-4.7c1.8-6.3-2.5-4.5-3-4.3c-0.5,0.3-1.3,0.2-1-0.3c0.8-1.6-0.4-1.4-1.1-1.5
		c-1.8-0.2-4.1,1.7-4.8,2.4c-0.8,0.7-1.5,0.6-1.8,0.5c-2.3-1.2-9.3,0.5-11.4-3.3c0.2-1-1.8-16.3-2.8-19c-0.3-0.8-0.2-1.8,0.3-2.5
		c1.8-2.7,6.6,0.2,9.3,0.1c3.2-0.1,3.7-1.4,4.5-2.5c0.8-1,1.5-0.5,1.9-0.7c0.6-0.4,0-1.1,0.2-1.5c0.2-0.4,0.4-0.2,1-0.7
		c0.5-0.5-0.1-1.5,0.2-1.9c0.8-1.2,2.9-0.2,1.6-3.3c-0.7-1.7,0.3-3.5,1.2-4.7c1.5-2,7.5-10.3-3-19c-10-8.3-20.1-7.6-26.6-0.5
		c-6.5,7.1-3.3,17.4-2.6,20.1c0.7,2.7-1.3,5.2-3.5,6.2c-1.8,0.8-5.8,3.5-8.9,6.2c0.5-22.1,13.9-41.6,34.5-49.9
		c0.9,1.1,1.8,2.1,2.9,3.1c-2.3,1.7-7.3,6.1-7.3,6.1s0.7,0.1,1.3,0.3c0.4,0.1,1.4,0.4,1.4,0.4s4.4-3.8,6.5-5.2
		c1.6,1.2,3.4,2.2,5.2,3.1c-1,1.7-3.5,6.4-3.5,6.4s0.6,0.4,1.1,0.7c0.5,0.3,0.8,0.6,0.8,0.6s2.7-5.2,3.8-6.9
		c2.3,0.8,4.7,1.2,7.1,1.3v9.5c-1.3,0-4.8-0.2-6.2-0.3l-0.9-0.1l0.5,0.7c0.4,0.5,0.7,1.1,0.9,1.6l0.1,0.2l0.2,0
		c1,0.1,4.2,0.2,5.4,0.2V170h2.4V166c3.5-0.2,6.4-0.4,9.9-0.7l0.2,0l3.1-2.7l-1.7,0.1c-3.3,0.4-6.6,0.7-10,0.9l-1.5,0.1v-10.9
		c4.3-0.1,8.7-0.7,12.9-1.8c1.1,2.8,3.3,9.7,3.3,9.7l2.3-0.7c0,0-2.2-6.8-3.3-9.7c3.6-1.1,7-2.6,10.3-4.4c2.6,3.3,4.9,6.8,6.8,10.5
		c-1.7,0.8-4.8,1.9-4.8,1.9c2.5,0.3,4.4,0.9,4.4,0.9s0.9-0.4,1.4-0.6c0.2,0.5,0.6,1.5,0.6,1.5l3.1,1.4l-0.4-0.9c0,0-1-2.4-1.3-3
		c3.3-1.6,6.5-3.5,9.6-5.5c5.9,8.9,9,19.4,9,30.1C586.9,200,578.3,215.9,565.1,226 M469.2,140l-0.9,0.8c-3.4,3-11.1,10.8-9.9,19.5
		c0,0,0.1,0.6,0.1,0.6l0.4,1.7l1.1-1c4.7-4.3,8.2-11.6,9.7-20l0.4-2.4L469.2,140L469.2,140z M453.5,154.9l-0.4,1
		c-0.5,1.4-1.5,4.5-2,8.5c-0.7,5.7-0.6,13.8,4.4,19.8c0,0,0.5,0.7,0.5,0.7l0.6,0.7l0.7-3.7c0.8-6.5-0.3-20-2.6-26.1l-0.8-2.1
		L453.5,154.9L453.5,154.9z M447.8,178.2l-0.1,1.1c-0.4,5.8-0.1,20.1,11.5,27.7l1.4,0.9l-0.1-1.6c-0.2-5.4-6.5-21.7-11.3-27.5
		l-1.3-1.6L447.8,178.2L447.8,178.2z M449.8,203.9l0.2,1c1.7,8.2,9.5,21.6,21.6,25.4l1.6,0.5l-0.6-1.6c-2.2-6.2-13.9-20.5-21.3-25.2
		l-1.7-1.1L449.8,203.9L449.8,203.9z M474,152.4l-1,0.6c-9,5.5-13.2,12.1-12.9,20.3l0.1,1.9l1.3-1.1c4.9-4,10.9-14.3,12.7-20.1
		l0.7-2.1L474,152.4L474,152.4z M468.7,170.3l-0.7,0.6c-2.3,2.2-9.7,10.1-9.1,19.9c0.1,1.5,0.4,3.1,1,4.8l0.5,1.6l1-1.3
		c3.6-5,8.3-18.2,8-24.3l-0.1-1.9L468.7,170.3z M469.1,187.3l-0.5,0.8c-3.7,5.6-5.7,11.3-5.5,16.5c0.1,3.9,1.3,7.6,3.7,11.1l0.8,1.2
		l0.7-1.2c1.6-3,2.9-12.9,2.7-20.7c-0.1-2.8-0.3-5-0.8-6.6l-0.5-1.7L469.1,187.3L469.1,187.3z M473.5,205.4l-0.2,0.8
		c-1.1,3.6-1.7,7.1-1.6,10.5c0.2,7.6,3.6,13.5,10,17.6l1.1,0.7l0.2-1.5c0,0,0.1-1.2,0.1-1.2c-0.2-6.2-4.8-21.7-8.4-26.5l-1-1.3
		L473.5,205.4L473.5,205.4z M460.8,229.5l0.5,0.8c4.8,8.1,13,18.6,28.4,15.9l1.3-0.2l-0.7-1.1c-2.9-4.3-21.5-14.8-28.1-15.8
		l-1.8-0.3L460.8,229.5z M483.5,250.1l-2.4,0.7l2.3,0.9c9.7,4,22,5.2,29.1,2.8c2.7-0.9,4.3-2.4,6.3-4.3c12.5,1.3,24.2,11.7,31,20.1
		l0.4,0.4l0.5-0.2c0.8-0.3,1.9-1.2,2.4-1.7l0.5-0.5l-0.4-0.6c-7.1-9.3-18.2-15.1-18.7-15.3C524.4,247.6,506.7,243.8,483.5,250.1"/>
	<path class="st0" d="M484,224.2l0.1,0.8c1.5,9.2,5.2,21.2,20.7,19.9l1-0.1l-0.3-1c-1.1-4.2-15.3-16.3-20.2-19.7l-1.5-0.8L484,224.2
		z M593.7,139.2l0.4,2.4c1.4,8.4,5,15.7,9.7,20l1.1,1l0.4-1.7c0,0,0.1-0.6,0.1-0.6c1.2-8.6-6.5-16.5-9.9-19.5l-0.9-0.8L593.7,139.2z
		 M609.9,153.9l-0.8,2.1c-2.4,6.1-3.5,19.6-2.6,26.1l0.7,3.7l0.6-0.7l0.5-0.7c4.9-6,5.1-14.1,4.4-19.8c-0.5-4-1.5-7.1-2-8.5l-0.4-1
		L609.9,153.9L609.9,153.9z M615.9,177.2l-1.3,1.6c-4.8,5.8-11.1,22-11.3,27.5l-0.1,1.6l1.4-0.9c11.6-7.6,11.9-21.9,11.5-27.7
		l-0.1-1.1L615.9,177.2L615.9,177.2z M614.2,202.9l-1.7,1.1c-7.5,4.7-19.1,19.1-21.3,25.2l-0.6,1.6l1.6-0.5
		c12-3.9,19.9-17.2,21.5-25.4l0.2-1L614.2,202.9L614.2,202.9z M589.3,151.5l0.6,2.1c1.7,5.9,7.5,16.3,12.3,20.4l1.3,1.1l0.1-1.9
		c0.5-8.2-3.6-14.9-12.4-20.5l-0.9-0.6L589.3,151.5z M594.4,169.7l-0.1,1.9c-0.2,6.1,4.5,19.3,8,24.3l1,1.3l0.5-1.6
		c0.6-1.7,0.9-3.3,1-4.8c0.6-9.8-6.8-17.7-9.1-19.9l-0.7-0.6L594.4,169.7L594.4,169.7z M594.1,186.5l-0.5,1.7
		c-0.5,1.6-0.7,3.8-0.8,6.6c-0.2,7.8,1.1,17.7,2.7,20.7l0.7,1.2l0.8-1.2c2.3-3.5,3.6-7.2,3.7-11.1c0.1-5.3-1.8-11-5.5-16.5l-0.5-0.8
		L594.1,186.5z M590,204.7l-1,1.3c-3.6,4.8-8.2,20.3-8.4,26.5c0,0,0.1,1.1,0.1,1.2l0.2,1.5c0,0,1.1-0.7,1.1-0.7
		c6.4-4.1,9.8-10.1,10-17.6c0.1-3.4-0.4-6.9-1.6-10.5l-0.3-0.8L590,204.7L590,204.7z M603.4,228.7l-1.8,0.3
		c-6.6,1.1-25.2,11.6-28.1,15.8l-0.7,1.1l1.3,0.2c15.3,2.7,23.5-7.8,28.4-15.9l0.5-0.8L603.4,228.7L603.4,228.7z M529.4,252.5
		c-0.5,0.2-11.6,6-18.7,15.3l-0.4,0.6l0.5,0.5c0.5,0.5,1.7,1.4,2.4,1.7l0.5,0.2l0.4-0.4c6.8-8.5,18.5-18.9,31-20.1
		c2,1.9,3.6,3.4,6.3,4.3c7.1,2.4,19.3,1.2,29.1-2.8l2.3-0.9l-2.4-0.7C557.1,243.8,539.4,247.6,529.4,252.5 M579.9,223.3l-1.5,0.8
		c-5,3.4-19.2,15.6-20.2,19.7l-0.2,1l1,0.1c15.5,1.3,19.3-10.7,20.7-19.9l0.1-0.8L579.9,223.3z M187.9,130.4h19.4V148h-19.4V130.4z
		 M189.4,168.1h16.3v86.2h-16.3V168.1L189.4,168.1z M66.3,168.2h16.3v86.2h-16v-12.7h-0.3c-6.5,10.8-17.5,15.3-29.5,15.3
		c-18,0-28.3-13.7-28.3-31.1v-57.7h16.3v51c0,14.9,3.4,25.9,19,25.9c6.7,0,15.8-3.4,19.2-12.4c3.1-8.1,3.3-18.2,3.3-20.3L66.3,168.2
		L66.3,168.2z M115.2,180.9h0.3c5.5-10.8,17.5-15.3,26.1-15.3c6,0,32.6,1.5,32.6,29.2v59.6h-16.3v-54.2c0-14.2-6-22-19.7-22
		c0,0-8.9-0.5-15.8,6.3c-2.4,2.4-6.9,6.2-6.9,23v46.9H99.2v-86.2h16L115.2,180.9L115.2,180.9z M274,195.8
		c-0.9-10.7-6-18.2-17.6-18.2c-15.5,0-21.5,13.4-21.5,33.6c0,20.1,6,33.6,21.5,33.6c10.7,0,17.4-7,18.2-19.3h16.2
		c-1.4,19.3-15.7,31-34.6,31c-27.4,0-38.3-19.4-38.3-44.7c0-25.1,12.6-46,39.7-46c18.1,0,31.7,11.4,32.5,30L274,195.8L274,195.8z
		 M315.2,214.2c-1.2,15,4.9,30.5,21.5,30.5c12.6,0,18.9-4.9,20.8-17.4h17.1c-2.6,19.5-17.6,29.2-38,29.2
		c-27.5,0-38.4-19.4-38.4-44.7c0-25.1,12.6-46,39.7-46c25.6,0.5,37.7,16.7,37.7,40.4v8L315.2,214.2L315.2,214.2z M358.5,203
		c0.3-14.3-6.2-25.4-21.8-25.4c-13.5,0-21.5,11.4-21.5,25.4H358.5L358.5,203z M393.9,254v-74.3h-14.7v-11.3h14.7V150
		c0.5-18.8,14.7-23.7,26.8-23.7c3.9,0,7.7,1,11.6,1.7v13.5c-2.8-0.1-5.5-0.5-8.2-0.5c-9.2,0-14.5,2.4-14,11.8v15.7h19.8v11.3h-19.8
		V254L393.9,254L393.9,254z"/>
</g>
</svg>
